<svg width="20" height="20" viewBox="0 0 20 20" fill="none" xmlns="http://www.w3.org/2000/svg">
<path d="M1.7842 11.5131C2.23088 11.9598 2.90089 11.9151 3.34757 11.5131L8.48437 6.10832V18.928C8.48437 19.5533 8.93104 20 9.55639 20H10.9858C11.5664 20 12.0578 19.5533 12.0578 18.928V6.10832L17.1499 11.4685C17.5966 11.9151 18.2666 11.9151 18.7133 11.5131L19.696 10.5304C20.098 10.0838 20.098 9.41374 19.696 9.01173L10.9858 0.301508C10.5838 -0.100503 9.91374 -0.100503 9.51173 0.301508L0.801508 9.01173C0.399497 9.41374 0.399497 10.0838 0.801508 10.5304L1.7842 11.5131Z" fill="white"/>
</svg>
