<svg width="23" height="20" viewBox="0 0 23 20" fill="none" xmlns="http://www.w3.org/2000/svg">
<path d="M20.625 11.7969L22.4609 3.67188C22.5781 3.08594 22.1484 2.5 21.5234 2.5H6.21094L5.85938 0.78125C5.74219 0.351562 5.35156 0 4.92188 0H0.9375C0.390625 0 0 0.429688 0 0.9375V1.5625C0 2.10938 0.390625 2.5 0.9375 2.5H3.63281L6.40625 15.9375C5.74219 16.3281 5.3125 17.0312 5.3125 17.8125C5.3125 19.0234 6.28906 20 7.5 20C8.67188 20 9.6875 19.0234 9.6875 17.8125C9.6875 17.2266 9.41406 16.6797 9.02344 16.25H17.1875C16.7969 16.6797 16.5625 17.2266 16.5625 17.8125C16.5625 19.0234 17.5391 20 18.75 20C19.9219 20 20.9375 19.0234 20.9375 17.8125C20.9375 16.9531 20.4297 16.2109 19.6875 15.8594L19.8828 14.9219C20.0391 14.3359 19.5703 13.75 18.9844 13.75H8.51562L8.24219 12.5H19.6875C20.1172 12.5 20.5078 12.2266 20.625 11.7969Z" fill="#1B130E"/>
</svg>
