<svg width="10" height="10" viewBox="0 0 10 10" fill="none" xmlns="http://www.w3.org/2000/svg">
<path fill-rule="evenodd" clip-rule="evenodd" d="M9.5376 9.53657C9.87898 9.19488 9.87898 8.64089 9.5376 8.2992L6.13321 4.8917L9.52787 1.49394C9.86924 1.15225 9.86924 0.598258 9.52787 0.256567C9.18649 -0.0851248 8.633 -0.0851253 8.29162 0.256566L4.89697 3.65432L1.50201 0.256268C1.16064 -0.0854229 0.60715 -0.0854228 0.265771 0.256269C-0.0756084 0.59796 -0.075609 1.15195 0.26577 1.49364L3.66072 4.8917L0.256034 8.2995C-0.0853449 8.64119 -0.0853448 9.19518 0.256034 9.53687C0.597414 9.87856 1.1509 9.87856 1.49228 9.53687L4.89697 6.12907L8.30136 9.53657C8.64274 9.87827 9.19622 9.87827 9.5376 9.53657Z" fill="#1B130E"/>
</svg>
