<svg width="29" height="25" viewBox="0 0 29 25" fill="none" xmlns="http://www.w3.org/2000/svg">
<path d="M14.0484 0C10.6339 0 7.90223 2.78041 7.90223 6.14618C7.90223 8.92659 11.9021 13.9021 13.4143 15.7557C13.7557 16.0971 14.2923 16.0971 14.6338 15.7557C16.1459 13.9021 20.1946 8.92659 20.1946 6.14618C20.1946 2.78041 17.4142 0 14.0484 0ZM14.0484 8.1949C12.8777 8.1949 11.9997 7.31688 11.9997 6.14618C11.9997 5.02426 12.8777 4.09745 14.0484 4.09745C15.1703 4.09745 16.0971 5.02426 16.0971 6.14618C16.0971 7.31688 15.1703 8.1949 14.0484 8.1949ZM0.975584 10.5363C0.390233 10.7802 0 11.3655 0 11.9997V24.1945C0 24.7798 0.536571 25.1701 1.02436 24.9262L7.80467 21.8531V10.4875C7.36566 9.70706 6.97542 8.97537 6.73153 8.24368L0.975584 10.5363ZM14.0484 17.5605C13.3167 17.5605 12.6826 17.2678 12.2436 16.7313C11.268 15.6093 10.2436 14.3411 9.3656 12.9753V21.8531L18.7312 24.9749V12.9753C17.8044 14.3411 16.78 15.6093 15.8045 16.7313C15.3654 17.2678 14.7313 17.5605 14.0484 17.5605ZM27.0237 7.90223L20.2921 10.9265V24.9749L27.0724 22.2921C27.6578 22.0482 28.0968 21.4628 28.0968 20.8287V8.63391C28.0968 8.04856 27.5115 7.65833 27.0237 7.90223Z" fill="#E6A151"/>
</svg>
