<svg width="25" height="25" viewBox="0 0 25 25" fill="none" xmlns="http://www.w3.org/2000/svg">
<path d="M8.59375 10.5469H16.4062C16.7969 10.5469 17.1875 10.2051 17.1875 9.76562V8.98438C17.1875 8.59375 16.7969 8.20312 16.4062 8.20312H8.59375C8.1543 8.20312 7.8125 8.59375 7.8125 8.98438V9.76562C7.8125 10.2051 8.1543 10.5469 8.59375 10.5469ZM7.8125 14.4531C7.8125 14.8926 8.1543 15.2344 8.59375 15.2344H16.4062C16.7969 15.2344 17.1875 14.8926 17.1875 14.4531V13.6719C17.1875 13.2812 16.7969 12.8906 16.4062 12.8906H8.59375C8.1543 12.8906 7.8125 13.2812 7.8125 13.6719V14.4531ZM12.5 20.4102C11.6699 20.4102 10.8887 20.166 10.2051 19.6289L0 12.2559V22.6562C0 23.9746 1.02539 25 2.34375 25H22.6562C23.9258 25 25 23.9746 25 22.6562V12.2559L14.7461 19.6289C14.0625 20.166 13.2812 20.4102 12.5 20.4102ZM24.0723 7.95898C23.6328 7.66602 23.2422 7.32422 22.6562 6.88477V4.6875C22.6562 3.41797 21.582 2.34375 20.3125 2.34375H16.5039C16.3574 2.24609 16.2109 2.14844 16.0645 2.05078C15.2344 1.46484 13.623 0 12.5 0C11.3281 0 9.7168 1.46484 8.88672 2.05078C8.74023 2.14844 8.59375 2.24609 8.44727 2.34375H4.6875C3.36914 2.34375 2.34375 3.41797 2.34375 4.6875V6.88477C1.70898 7.32422 1.31836 7.66602 0.878906 7.95898C0.341797 8.39844 0 9.08203 0 9.81445V10.3516L4.6875 13.7207V4.6875H20.3125V13.7207L25 10.3516V9.81445C25 9.08203 24.6582 8.44727 24.0723 7.95898Z" fill="#E6A151"/>
</svg>
