<svg width="25" height="25" viewBox="0 0 25 25" fill="none" xmlns="http://www.w3.org/2000/svg">
<path d="M12.5 0C5.59476 0 0 5.59476 0 12.5C0 19.4052 5.59476 25 12.5 25C19.4052 25 25 19.4052 25 12.5C25 5.59476 19.4052 0 12.5 0ZM17.1371 15.7762L16.129 17.0363C15.9778 17.2379 15.7762 17.3891 15.4738 17.3891C15.3226 17.3891 15.121 17.2883 15.0202 17.1875L11.6431 14.6673C11.1391 14.3145 10.8871 13.7601 10.8871 13.1048V5.24194C10.8871 4.83871 11.2399 4.43548 11.6935 4.43548H13.3065C13.7097 4.43548 14.1129 4.83871 14.1129 5.24194V12.5L17.0363 14.6673C17.1875 14.8185 17.3387 15.0202 17.3387 15.2722C17.3387 15.4738 17.2379 15.6754 17.1371 15.7762Z" fill="#E6A151"/>
</svg>
