<svg width="75" height="75" viewBox="0 0 75 75" fill="none" xmlns="http://www.w3.org/2000/svg">
<circle cx="37.5" cy="37.5" r="36.5" stroke="#E6A151" stroke-width="2"/>
<path d="M17.5466 46.4375C17.6873 47.0703 18.3201 47.4219 18.8826 47.2109L34.1404 43.1328C34.7029 42.9922 35.0544 42.3594 34.9138 41.7969L31.3982 28.7188C31.2576 28.1562 30.6248 27.8047 30.0623 27.9453L24.6482 29.4219L26.3357 35.8906L22.0466 37.0859L20.2888 30.5469L14.8044 32.0234C14.2419 32.1641 13.8904 32.7969 14.031 33.4297L17.5466 46.4375ZM41.031 20C39.7654 20 38.781 21.0547 38.781 22.25V45.0312L14.3826 51.6406C14.1013 51.7812 13.9607 52.0625 14.031 52.3438L14.8748 55.6484C15.0154 55.9297 15.2966 56.0703 15.5779 56L43.281 48.4766C43.4216 52.6953 46.8669 56 51.156 56C55.4451 56 59.031 52.4844 59.031 48.125V20H41.031ZM51.156 51.5C49.2576 51.5 47.781 50.0234 47.781 48.125C47.781 46.2969 49.2576 44.75 51.156 44.75C52.9841 44.75 54.531 46.2969 54.531 48.125C54.531 50.0234 52.9841 51.5 51.156 51.5Z" fill="#E6A151"/>
</svg>
