<svg width="31" height="25" viewBox="0 0 31 25" fill="none" xmlns="http://www.w3.org/2000/svg">
<path d="M2.44155 18.3502C2.53836 18.7895 2.974 19.0335 3.36123 18.8871L13.8649 16.0565C14.2522 15.9589 14.4942 15.5196 14.3974 15.1292L11.9772 6.05168C11.8804 5.66124 11.4447 5.41723 11.0575 5.51483L7.33037 6.53971L8.49207 11.0297L5.53942 11.8593L4.32932 7.32058L0.553792 8.34546C0.166559 8.44306 -0.0754615 8.8823 0.0213468 9.32153L2.44155 18.3502ZM18.6085 0C17.7373 0 17.0596 0.732058 17.0596 1.56172V17.3742L0.263368 21.9617C0.0697509 22.0593 -0.0270573 22.2545 0.0213468 22.4498L0.602197 24.7435C0.699005 24.9388 0.892621 25.0364 1.08624 24.9876L20.1575 19.7656C20.2543 22.6938 22.6261 24.9876 25.5787 24.9876C28.5314 24.9876 31 22.5474 31 19.5215V0H18.6085ZM25.5787 21.8641C24.2718 21.8641 23.2553 20.8392 23.2553 19.5215C23.2553 18.2526 24.2718 17.179 25.5787 17.179C26.8372 17.179 27.9021 18.2526 27.9021 19.5215C27.9021 20.8392 26.8372 21.8641 25.5787 21.8641Z" fill="#E6A151"/>
</svg>
