<svg width="46" height="37" viewBox="0 0 46 37" fill="none" xmlns="http://www.w3.org/2000/svg">
<path d="M3.54663 26.4375C3.68726 27.0703 4.32007 27.4219 4.88257 27.2109L20.1404 23.1328C20.7029 22.9922 21.0544 22.3594 20.9138 21.7969L17.3982 8.71875C17.2576 8.15625 16.6248 7.80469 16.0623 7.94531L10.6482 9.42188L12.3357 15.8906L8.04663 17.0859L6.28882 10.5469L0.804446 12.0234C0.241946 12.1641 -0.109616 12.7969 0.0310086 13.4297L3.54663 26.4375ZM27.031 0C25.7654 0 24.781 1.05469 24.781 2.25V25.0312L0.382571 31.6406C0.101321 31.7812 -0.0393039 32.0625 0.0310086 32.3438L0.874759 35.6484C1.01538 35.9297 1.29663 36.0703 1.57788 36L29.281 28.4766C29.4216 32.6953 32.8669 36 37.156 36C41.4451 36 45.031 32.4844 45.031 28.125V0H27.031ZM37.156 31.5C35.2576 31.5 33.781 30.0234 33.781 28.125C33.781 26.2969 35.2576 24.75 37.156 24.75C38.9841 24.75 40.531 26.2969 40.531 28.125C40.531 30.0234 38.9841 31.5 37.156 31.5Z" fill="#E6A151"/>
</svg>
