<svg width="16" height="16" viewBox="0 0 16 16" fill="none" xmlns="http://www.w3.org/2000/svg">
<path d="M15.4643 3.5L12.5 0.535714C12.1786 0.214286 11.75 0 11.2857 0H1.71429C0.75 0 0 0.785714 0 1.71429V14.2857C0 15.25 0.75 16 1.71429 16H14.2857C15.2143 16 16 15.25 16 14.2857V4.71429C16 4.25 15.7857 3.82143 15.4643 3.5ZM8 13.7143C6.71429 13.7143 5.71429 12.7143 5.71429 11.4286C5.71429 10.1786 6.71429 9.14286 8 9.14286C9.25 9.14286 10.2857 10.1786 10.2857 11.4286C10.2857 12.7143 9.25 13.7143 8 13.7143ZM11.4286 2.85714V6.42857C11.4286 6.67857 11.2143 6.85714 11 6.85714H2.71429C2.46429 6.85714 2.28571 6.67857 2.28571 6.42857V2.71429C2.28571 2.5 2.46429 2.28571 2.71429 2.28571H10.8571C10.9643 2.28571 11.0714 2.35714 11.1786 2.42857L11.2857 2.53571C11.3571 2.64286 11.4286 2.75 11.4286 2.85714Z" fill="white"/>
</svg>
