<svg width="18" height="16" viewBox="0 0 18 16" fill="none" xmlns="http://www.w3.org/2000/svg">
<path d="M16.728 5.36806L12.1673 4.71248L10.1056 0.560474C9.76193 -0.157542 8.69984 -0.18876 8.32498 0.560474L6.29451 4.71248L1.70253 5.36806C0.890339 5.49294 0.577959 6.49192 1.17148 7.08506L4.45147 10.3005L3.67052 14.8272C3.54557 15.6388 4.42023 16.2632 5.13871 15.8886L9.23089 13.7345L13.2918 15.8886C14.0103 16.2632 14.885 15.6388 14.76 14.8272L13.9791 10.3005L17.2591 7.08506C17.8526 6.49192 17.5402 5.49294 16.728 5.36806ZM12.3547 9.76982L13.1044 14.0779L9.23089 12.0487L5.32614 14.0779L6.07585 9.76982L2.92081 6.71044L7.26289 6.08608L9.23089 2.1526L11.1676 6.08608L15.5097 6.71044L12.3547 9.76982Z" fill="#E6A151"/>
</svg>
