<svg width="21" height="16" viewBox="0 0 21 16" fill="none" xmlns="http://www.w3.org/2000/svg">
<path d="M19.5278 13.9971H17.0242V3.54477C17.0242 2.69982 16.3358 1.98004 15.5221 1.98004H12.0171V3.98289H15.0214V16H19.5278C19.7782 16 20.0285 15.7809 20.0285 15.4993V14.4979C20.0285 14.2475 19.7782 13.9971 19.5278 13.9971ZM9.7639 0.0397816L3.75535 1.57321C3.28593 1.69839 3.00428 2.10522 3.00428 2.57464V13.9971H0.500713C0.219062 13.9971 0 14.2475 0 14.4979V15.4993C0 15.7809 0.219062 16 0.500713 16H11.0157V1.04121C11.0157 0.352727 10.3898 -0.147986 9.7639 0.0397816ZM8.26176 8.99002C7.82364 8.99002 7.51069 8.5519 7.51069 7.9886C7.51069 7.45659 7.82364 6.98717 8.26176 6.98717C8.66859 6.98717 9.01283 7.45659 9.01283 7.9886C9.01283 8.5519 8.66859 8.99002 8.26176 8.99002Z" fill="#1B130E"/>
</svg>
