<svg width="17" height="16" viewBox="0 0 17 16" fill="none" xmlns="http://www.w3.org/2000/svg">
<path d="M16.0022 5.37158L11.4397 4.71575L9.37715 0.562142C9.18965 0.187381 8.8459 0 8.4709 0C8.12715 0 7.7834 0.187381 7.5959 0.562142L5.5334 4.71575L0.970904 5.37158C0.158404 5.4965 -0.185346 6.49586 0.408404 7.08923L3.7209 10.3059L2.93965 14.8343C2.81465 15.4901 3.3459 15.9898 3.93965 15.9898C4.0959 15.9898 4.25215 15.9586 4.4084 15.8961L8.4709 13.7412L12.5647 15.8961C12.7209 15.9586 12.8772 15.9898 13.0334 15.9898C13.6272 15.9898 14.1272 15.4901 14.0334 14.8343L13.2522 10.3059L16.5647 7.08923C17.1584 6.49586 16.8147 5.4965 16.0022 5.37158ZM12.1897 9.21288L11.6272 9.77502L11.7522 10.5558L12.3772 14.0848L9.18965 12.4296L8.4709 12.0548L8.50215 2.15488L10.0959 5.37158L10.4397 6.08987L11.2209 6.18356L14.7834 6.71447L12.1897 9.21288Z" fill="#E6A151"/>
</svg>
