<svg width="23" height="20" viewBox="0 0 23 20" fill="none" xmlns="http://www.w3.org/2000/svg">
<path d="M20.4323 1.4566C17.8469 -0.727595 13.8797 -0.415567 11.4281 2.12524C8.93184 -0.415567 4.96463 -0.727595 2.37925 1.4566C-0.963912 4.26486 -0.473582 8.85613 1.93349 11.3078L9.7342 19.2868C10.18 19.7325 10.7594 20 11.4281 20C12.0521 20 12.6316 19.7325 13.0774 19.2868L20.9226 11.3078C23.2851 8.85613 23.7755 4.26486 20.4323 1.4566ZM19.3625 9.79222L11.5618 17.7712C11.4726 17.8604 11.3835 17.8604 11.2498 17.7712L3.44906 9.79222C1.79977 8.14292 1.48774 5.02264 3.76109 3.1059C5.49953 1.6349 8.17406 1.85778 9.86793 3.55165L11.4281 5.15637L12.9882 3.55165C14.6375 1.85778 17.312 1.6349 19.0505 3.06132C21.3238 5.02264 21.0118 8.14292 19.3625 9.79222Z" fill="#A2692F"/>
</svg>
