<svg width="18" height="16" viewBox="0 0 18 16" fill="none" xmlns="http://www.w3.org/2000/svg">
<path d="M8.99098 0C6.80567 0 5.05743 1.77946 5.05743 3.93355C5.05743 5.71302 7.61736 8.89732 8.58514 10.0836C8.80367 10.3022 9.14707 10.3022 9.3656 10.0836C10.3334 8.89732 12.9245 5.71302 12.9245 3.93355C12.9245 1.77946 11.1451 0 8.99098 0ZM8.99098 5.24474C8.24173 5.24474 7.67979 4.6828 7.67979 3.93355C7.67979 3.21552 8.24173 2.62237 8.99098 2.62237C9.70901 2.62237 10.3022 3.21552 10.3022 3.93355C10.3022 4.6828 9.70901 5.24474 8.99098 5.24474ZM0.624374 6.74323C0.249749 6.89933 0 7.27395 0 7.67979V15.4845C0 15.8591 0.343405 16.1088 0.655592 15.9527L4.99499 13.986V6.71202C4.71402 6.21252 4.46427 5.74424 4.30818 5.27596L0.624374 6.74323ZM8.99098 11.2387C8.5227 11.2387 8.11686 11.0514 7.83589 10.708C7.21151 9.98998 6.55592 9.17829 5.99399 8.30417V13.986L11.988 15.984V8.30417C11.3948 9.17829 10.7392 9.98998 10.1149 10.708C9.83388 11.0514 9.42804 11.2387 8.99098 11.2387ZM17.2951 5.05743L12.987 6.99298V15.984L17.3264 14.2669C17.701 14.1108 17.982 13.7362 17.982 13.3304V5.52571C17.982 5.15108 17.6073 4.90133 17.2951 5.05743Z" fill="#1B130E"/>
</svg>
