<svg width="16" height="16" viewBox="0 0 16 16" fill="none" xmlns="http://www.w3.org/2000/svg">
<path d="M16 14.4695V6.25076C16 5.78201 15.75 5.34451 15.4063 5.06326C14.625 4.46951 14 3.96951 10.2812 1.28201C9.75 0.907013 8.71875 -0.0304874 8 0.000762599C7.25 -0.0304874 6.21875 0.907013 5.6875 1.28201C1.96875 3.96951 1.34375 4.46951 0.5625 5.06326C0.21875 5.34451 0 5.78201 0 6.25076V14.4695C0 15.3133 0.65625 15.9695 1.5 15.9695H14.5C15.3125 15.9695 16 15.3133 16 14.4695ZM13.9375 8.34451L14.2188 8.75076C14.25 8.78201 14.25 8.84451 14.25 8.90701C14.25 8.96951 14.2188 9.06326 14.1563 9.09451C13.4375 9.62576 12.4375 10.3758 10.875 11.5008C10.2188 11.9695 9.09375 13.0008 8 12.9695C6.875 13.0008 5.75 11.9695 5.09375 11.5008C3.53125 10.3758 2.53125 9.62576 1.8125 9.09451C1.75 9.06326 1.71875 8.96951 1.71875 8.90701C1.71875 8.84451 1.71875 8.78201 1.75 8.75076L2.03125 8.34451C2.125 8.21951 2.28125 8.18826 2.40625 8.28201C3.09375 8.81326 4.125 9.56326 5.6875 10.6883C6.21875 11.0633 7.25 12.0008 8 11.9695C8.71875 12.0008 9.75 11.0633 10.2812 10.6883C11.8438 9.56326 12.875 8.81326 13.5625 8.28201C13.6875 8.18826 13.8438 8.21951 13.9375 8.34451Z" fill="#1B130E"/>
</svg>
