<svg width="31" height="22" viewBox="0 0 31 22" fill="none" xmlns="http://www.w3.org/2000/svg">
<path d="M30.0797 1.12946C28.1906 0.34375 26.3016 0 24.4125 0C18.4547 0 12.4969 3.09375 6.53906 3.09375C5.0375 3.09375 3.53594 2.89732 2.03437 2.40625C1.88906 2.35714 1.69531 2.30804 1.55 2.30804C0.726562 2.30804 0 2.99554 0 3.87946V19.4955C0 20.0848 0.339063 20.6741 0.871875 20.9196C2.76094 21.7054 4.65 22 6.53906 22C12.4969 22 18.4547 18.9554 24.4125 18.9554C25.9141 18.9554 27.4156 19.1518 28.9172 19.6429C29.0625 19.692 29.2563 19.692 29.4016 19.692C30.225 19.692 31 19.0536 31 18.1696V2.55357C31 1.96429 30.6125 1.375 30.0797 1.12946ZM2.325 4.95982C3.29375 5.20536 4.31094 5.30357 5.32812 5.40179C5.0375 6.82589 3.82656 7.90625 2.325 7.90625V4.95982ZM2.325 18.9554V16.5982C3.97188 16.5982 5.32812 17.9241 5.37656 19.5938C4.31094 19.5446 3.29375 19.2991 2.325 18.9554ZM15.5 15.7143C13.3203 15.7143 11.625 13.6518 11.625 11C11.625 8.39732 13.3203 6.28571 15.5 6.28571C17.6313 6.28571 19.375 8.39732 19.375 11C19.375 13.6518 17.6313 15.7143 15.5 15.7143ZM28.675 17.0893C27.8031 16.8929 26.9313 16.7455 26.0109 16.6964C26.3016 15.4196 27.3672 14.4375 28.675 14.2902V17.0893ZM28.675 5.5C27.1734 5.30357 26.0109 4.02679 25.9625 2.50446C26.8828 2.60268 27.8031 2.79911 28.675 3.09375V5.5Z" fill="#E6A151"/>
</svg>
