<svg width="16" height="12" viewBox="0 0 16 12" fill="none" xmlns="http://www.w3.org/2000/svg">
<path d="M15.525 0.575C14.55 0.175 13.575 0 12.6 0C9.525 0 6.45 1.575 3.375 1.575C2.6 1.575 1.825 1.475 1.05 1.225C0.975 1.2 0.875 1.175 0.8 1.175C0.375 1.175 0 1.525 0 1.975V9.925C0 10.225 0.175 10.525 0.45 10.65C1.425 11.05 2.4 11.2 3.375 11.2C6.45 11.2 9.525 9.65 12.6 9.65C13.375 9.65 14.15 9.75 14.925 10C15 10.025 15.1 10.025 15.175 10.025C15.6 10.025 16 9.7 16 9.25V1.3C16 1 15.8 0.7 15.525 0.575ZM1.2 2.525C1.7 2.65 2.225 2.7 2.75 2.75C2.6 3.475 1.975 4.025 1.2 4.025V2.525ZM1.2 9.65V8.45C2.05 8.45 2.75 9.125 2.775 9.975C2.225 9.95 1.7 9.825 1.2 9.65ZM8 8C6.875 8 6 6.95 6 5.6C6 4.275 6.875 3.2 8 3.2C9.1 3.2 10 4.275 10 5.6C10 6.95 9.1 8 8 8ZM14.8 8.7C14.35 8.6 13.9 8.525 13.425 8.5C13.575 7.85 14.125 7.35 14.8 7.275V8.7ZM14.8 2.8C14.025 2.7 13.425 2.05 13.4 1.275C13.875 1.325 14.35 1.425 14.8 1.575V2.8Z" fill="#1B130E"/>
</svg>
