<svg width="45" height="32" viewBox="0 0 45 32" fill="none" xmlns="http://www.w3.org/2000/svg">
<path d="M43.6641 1.61719C40.9219 0.492188 38.1797 0 35.4375 0C26.7891 0 18.1406 4.42969 9.49219 4.42969C7.3125 4.42969 5.13281 4.14844 2.95312 3.44531C2.74219 3.375 2.46094 3.30469 2.25 3.30469C1.05469 3.30469 0 4.28906 0 5.55469V27.9141C0 28.7578 0.492188 29.6016 1.26562 29.9531C4.00781 31.0781 6.75 31.5 9.49219 31.5C18.1406 31.5 26.7891 27.1406 35.4375 27.1406C37.6172 27.1406 39.7969 27.4219 41.9766 28.125C42.1875 28.1953 42.4688 28.1953 42.6797 28.1953C43.875 28.1953 45 27.2812 45 26.0156V3.65625C45 2.8125 44.4375 1.96875 43.6641 1.61719ZM3.375 7.10156C4.78125 7.45312 6.25781 7.59375 7.73438 7.73438C7.3125 9.77344 5.55469 11.3203 3.375 11.3203V7.10156ZM3.375 27.1406V23.7656C5.76562 23.7656 7.73438 25.6641 7.80469 28.0547C6.25781 27.9844 4.78125 27.6328 3.375 27.1406ZM22.5 22.5C19.3359 22.5 16.875 19.5469 16.875 15.75C16.875 12.0234 19.3359 9 22.5 9C25.5938 9 28.125 12.0234 28.125 15.75C28.125 19.5469 25.5938 22.5 22.5 22.5ZM41.625 24.4688C40.3594 24.1875 39.0938 23.9766 37.7578 23.9062C38.1797 22.0781 39.7266 20.6719 41.625 20.4609V24.4688ZM41.625 7.875C39.4453 7.59375 37.7578 5.76562 37.6875 3.58594C39.0234 3.72656 40.3594 4.00781 41.625 4.42969V7.875Z" fill="#E6A151"/>
</svg>
