<svg width="75" height="75" viewBox="0 0 75 75" fill="none" xmlns="http://www.w3.org/2000/svg">
<circle cx="37.5" cy="37.5" r="36.5" stroke="#E6A151" stroke-width="2"/>
<path d="M58.6641 23.6172C55.9219 22.4922 53.1797 22 50.4375 22C41.7891 22 33.1406 26.4297 24.4922 26.4297C22.3125 26.4297 20.1328 26.1484 17.9531 25.4453C17.7422 25.375 17.4609 25.3047 17.25 25.3047C16.0547 25.3047 15 26.2891 15 27.5547V49.9141C15 50.7578 15.4922 51.6016 16.2656 51.9531C19.0078 53.0781 21.75 53.5 24.4922 53.5C33.1406 53.5 41.7891 49.1406 50.4375 49.1406C52.6172 49.1406 54.7969 49.4219 56.9766 50.125C57.1875 50.1953 57.4688 50.1953 57.6797 50.1953C58.875 50.1953 60 49.2812 60 48.0156V25.6562C60 24.8125 59.4375 23.9688 58.6641 23.6172ZM18.375 29.1016C19.7812 29.4531 21.2578 29.5938 22.7344 29.7344C22.3125 31.7734 20.5547 33.3203 18.375 33.3203V29.1016ZM18.375 49.1406V45.7656C20.7656 45.7656 22.7344 47.6641 22.8047 50.0547C21.2578 49.9844 19.7812 49.6328 18.375 49.1406ZM37.5 44.5C34.3359 44.5 31.875 41.5469 31.875 37.75C31.875 34.0234 34.3359 31 37.5 31C40.5938 31 43.125 34.0234 43.125 37.75C43.125 41.5469 40.5938 44.5 37.5 44.5ZM56.625 46.4688C55.3594 46.1875 54.0938 45.9766 52.7578 45.9062C53.1797 44.0781 54.7266 42.6719 56.625 42.4609V46.4688ZM56.625 29.875C54.4453 29.5938 52.7578 27.7656 52.6875 25.5859C54.0234 25.7266 55.3594 26.0078 56.625 26.4297V29.875Z" fill="#E6A151"/>
</svg>
