<svg width="16" height="16" viewBox="0 0 16 16" fill="none" xmlns="http://www.w3.org/2000/svg">
<path d="M15.9989 7.99945C15.9666 3.5804 12.3862 0 7.99945 0C5.83831 0 3.90296 0.870908 2.45144 2.22565L0.870908 0.645117C0.548349 0.322558 0 0.548349 0 0.999931V5.67703C0 5.96733 0.225791 6.19312 0.516093 6.19312H5.19319C5.64477 6.19312 5.87056 5.64477 5.548 5.32221L3.90296 3.67717C4.9674 2.67723 6.41891 2.06437 7.99945 2.06437C11.2573 2.06437 13.9345 4.74161 13.9345 7.99945C13.9345 11.2895 11.2573 13.9345 7.99945 13.9345C6.58019 13.9345 5.32221 13.4829 4.29003 12.6765C3.99972 12.4185 3.54814 12.4508 3.25784 12.7411L2.90303 13.0959C2.58047 13.4184 2.61272 13.9668 2.96754 14.2571C4.32228 15.3538 6.09635 16.0312 7.99945 15.9989C12.3862 15.9989 15.9989 12.4185 15.9989 7.99945ZM10.1606 10.5477L10.4509 10.1283C10.7412 9.80577 10.6767 9.32194 10.3219 9.06389L9.03164 8.0317V4.64484C9.03164 4.22551 8.67682 3.8707 8.2575 3.8707H7.7414C7.28982 3.8707 6.96726 4.22551 6.96726 4.64484V9.03163L9.06389 10.6767C9.38645 10.9347 9.87029 10.8702 10.1606 10.5477Z" fill="#1B130E"/>
</svg>
