<svg width="16" height="16" viewBox="0 0 16 16" fill="none" xmlns="http://www.w3.org/2000/svg">
<path d="M14.2857 16C15.2143 16 16 15.25 16 14.2857V1.71429C16 0.785714 15.2143 0 14.2857 0H1.71429C0.75 0 0 0.785714 0 1.71429V14.2857C0 15.25 0.75 16 1.71429 16H14.2857ZM8.5 5.21429C8.57143 5.14286 8.71429 5.14286 8.78571 5.21429L10.7857 7.21429C10.8571 7.28571 10.8571 7.42857 10.7857 7.5L5.92857 12.3571L3.89286 12.5714C3.60714 12.6071 3.39286 12.3929 3.42857 12.1071L3.64286 10.0714L8.5 5.21429ZM12.3214 4.78571C12.6429 5.10714 12.6429 5.64286 12.3214 5.96429L11.4643 6.82143C11.3929 6.89286 11.25 6.89286 11.1786 6.82143L9.17857 4.82143C9.10714 4.75 9.10714 4.60714 9.17857 4.53571L10.0357 3.67857C10.3571 3.35714 10.8929 3.35714 11.2143 3.67857L12.3214 4.78571Z" fill="#1B130E"/>
</svg>
