<svg width="17" height="16" viewBox="0 0 17 16" fill="none" xmlns="http://www.w3.org/2000/svg">
<path d="M16.5427 4.44829C17.1368 3.85414 17.1368 2.88474 16.5427 2.32187L14.6664 0.445611C14.1035 -0.148537 13.1341 -0.148537 12.54 0.445611L11.1015 1.88407C10.9764 2.00916 10.9764 2.25933 11.1015 2.41568L14.5726 5.88675C14.729 6.01184 14.9791 6.01184 15.1042 5.88675L16.5427 4.44829ZM9.88196 3.10364L1.65771 11.3279L1.00102 15.1117C0.907203 15.6433 1.345 16.0811 1.8766 15.9873L5.66039 15.3306L13.8846 7.10632C14.041 6.98124 14.041 6.73107 13.8846 6.57471L10.4136 3.10364C10.2572 2.97856 10.007 2.97856 9.88196 3.10364ZM4.87861 10.6087C4.69099 10.4523 4.69099 10.1709 4.87861 10.0145L9.69434 5.19879C9.85069 5.01117 10.1321 5.01117 10.2885 5.19879C10.4761 5.35515 10.4761 5.63659 10.2885 5.79294L5.47276 10.6087C5.31641 10.7963 5.03497 10.7963 4.87861 10.6087ZM3.75286 13.2354H5.25386V14.3924L3.22125 14.7364L2.25185 13.767L2.59583 11.7344H3.75286V13.2354Z" fill="#1B130E"/>
</svg>
