<svg width="15" height="16" viewBox="0 0 15 16" fill="none" xmlns="http://www.w3.org/2000/svg">
<path d="M3.51108 7C5.41733 7 7.01108 5.4375 7.01108 3.5C7.01108 1.59375 5.41733 0 3.51108 0C1.57358 0 0.0110833 1.59375 0.0110833 3.5C0.0110833 5.4375 1.57358 7 3.51108 7ZM3.51108 2C4.32358 2 5.01108 2.6875 5.01108 3.5C5.01108 4.34375 4.32358 5 3.51108 5C2.66733 5 2.01108 4.34375 2.01108 3.5C2.01108 2.6875 2.66733 2 3.51108 2ZM10.5111 9C8.57358 9 7.01108 10.5938 7.01108 12.5C7.01108 14.4375 8.57358 16 10.5111 16C12.4173 16 14.0111 14.4375 14.0111 12.5C14.0111 10.5938 12.4173 9 10.5111 9ZM10.5111 14C9.66733 14 9.01108 13.3438 9.01108 12.5C9.01108 11.6875 9.66733 11 10.5111 11C11.3236 11 12.0111 11.6875 12.0111 12.5C12.0111 13.3438 11.3236 14 10.5111 14ZM12.2611 0.03125C12.0111 0.03125 11.7923 0.125 11.6361 0.34375L0.136083 14.8438C-0.207667 15.3125 0.136083 16 0.761083 16H1.79233C2.04233 16 2.29233 15.875 2.41733 15.6875L13.8548 1.1875C14.1986 0.6875 13.8548 0 13.2298 0.03125H12.2611Z" fill="#1B130E"/>
</svg>
