<svg width="16" height="16" viewBox="0 0 16 16" fill="none" xmlns="http://www.w3.org/2000/svg">
<path d="M9.26984 7.14286C9.07937 7.14286 8.88889 6.95238 8.88889 6.7619V5.2381C8.88889 5.01587 9.07937 4.85714 9.26984 4.85714H12.381C11.3651 3.46032 9.74603 2.53968 7.87302 2.53968C4.79365 2.53968 2.28572 5.04762 2.28572 8.12698C2.28572 11.2381 4.79365 13.7143 7.87302 13.7143C9.30159 13.7143 10.6032 13.2063 11.5873 12.3175C11.746 12.1905 11.9683 12.1905 12.0952 12.3492L13.1746 13.4286C13.3333 13.5873 13.3333 13.8413 13.1746 13.9683C11.7778 15.2381 9.90476 16 7.87302 16C3.52381 16 9.53674e-07 12.5079 9.53674e-07 8.15873C9.53674e-07 3.80952 3.46032 0.31746 7.80952 0.285714C10.1587 0.253968 12.2857 1.26984 13.7143 2.88889V0.380952C13.7143 0.190476 13.9048 0 14.0952 0H15.619C15.8413 0 16 0.190476 16 0.380952V6.7619C16 6.95238 15.8413 7.14286 15.619 7.14286H9.26984Z" fill="white"/>
</svg>
