<svg width="16" height="13" viewBox="0 0 16 13" fill="none" xmlns="http://www.w3.org/2000/svg">
<path d="M0.0156098 3.48504C0.0156098 3.92211 0.327805 4.2343 0.764878 4.2343H12.0039V5.73284C12.0039 6.41967 12.7844 6.73186 13.2527 6.26357L15.7502 3.76601C16.0624 3.48504 16.0624 3.01674 15.7502 2.73577L13.2527 0.238207C12.7844 -0.261305 12.0039 0.0821093 12.0039 0.737719V2.23626H0.764878C0.327805 2.23626 0.0156098 2.57967 0.0156098 2.98552V3.48504ZM15.2507 8.2304H4.01171V6.73186C4.01171 6.07626 3.2 5.73284 2.73171 6.23235L0.234146 8.72991C-0.0780488 9.01089 -0.0780488 9.47918 0.234146 9.76016L2.73171 12.2577C3.2 12.726 4.01171 12.4138 4.01171 11.727V10.2284H15.2507C15.6566 10.2284 16 9.91625 16 9.47918V8.97967C16 8.57382 15.6566 8.2304 15.2507 8.2304Z" fill="#1B130E"/>
</svg>
