<svg width="16" height="16" viewBox="0 0 16 16" fill="none" xmlns="http://www.w3.org/2000/svg">
<path d="M15.7659 13.8302L12.6439 10.7083C12.4878 10.5834 12.3005 10.4898 12.1132 10.4898H11.6137C12.4566 9.39707 12.9873 8.02341 12.9873 6.49366C12.9873 2.93463 10.0527 0 6.49366 0C2.90341 0 0 2.93463 0 6.49366C0 10.0839 2.90341 12.9873 6.49366 12.9873C7.9922 12.9873 9.36585 12.4878 10.4898 11.6137V12.1444C10.4898 12.3317 10.5522 12.519 10.7083 12.6751L13.799 15.7659C14.1112 16.078 14.5795 16.078 14.8605 15.7659L15.7346 14.8917C16.0468 14.6107 16.0468 14.1424 15.7659 13.8302ZM6.49366 10.4898C4.27707 10.4898 2.49756 8.71024 2.49756 6.49366C2.49756 4.30829 4.27707 2.49756 6.49366 2.49756C8.67902 2.49756 10.4898 4.30829 10.4898 6.49366C10.4898 8.71024 8.67902 10.4898 6.49366 10.4898Z" fill="#1B130E"/>
</svg>
