<svg width="75" height="75" viewBox="0 0 75 75" fill="none" xmlns="http://www.w3.org/2000/svg">
<circle cx="37.5" cy="37.5" r="36.5" stroke="#E6A151" stroke-width="2"/>
<path d="M49.3125 17.5H25.6875C24.7031 17.5 24 18.2734 24 19.1875V20.3125C24 21.2969 24.7031 22 25.6875 22C25.6875 28.3984 29.2734 33.8125 34.125 35.5C29.2734 37.2578 25.6875 42.6719 25.6875 49C24.7031 49 24 49.7734 24 50.6875V51.8125C24 52.7969 24.7031 53.5 25.6875 53.5H49.3125C50.2266 53.5 51 52.7969 51 51.8125V50.6875C51 49.7734 50.2266 49 49.3125 49C49.3125 42.6719 45.6562 37.2578 40.8047 35.5C45.6562 33.8125 49.3125 28.3984 49.3125 22C50.2266 22 51 21.2969 51 20.3125V19.1875C51 18.2734 50.2266 17.5 49.3125 17.5ZM43.9688 44.5H30.9609C32.1562 41.2656 34.6172 38.875 37.5 38.875C40.3125 38.875 42.7734 41.2656 43.9688 44.5ZM43.9688 26.5H30.9609C30.3984 25.1641 30.1875 23.6172 30.1875 22H44.8125C44.8125 23.6172 44.5312 25.1641 43.9688 26.5Z" fill="#E6A151"/>
</svg>
