<svg width="27" height="37" viewBox="0 0 27 37" fill="none" xmlns="http://www.w3.org/2000/svg">
<path d="M25.3125 0.5H1.6875C0.703125 0.5 0 1.27344 0 2.1875V3.3125C0 4.29688 0.703125 5 1.6875 5C1.6875 11.3984 5.27344 16.8125 10.125 18.5C5.27344 20.2578 1.6875 25.6719 1.6875 32C0.703125 32 0 32.7734 0 33.6875V34.8125C0 35.7969 0.703125 36.5 1.6875 36.5H25.3125C26.2266 36.5 27 35.7969 27 34.8125V33.6875C27 32.7734 26.2266 32 25.3125 32C25.3125 25.6719 21.6562 20.2578 16.8047 18.5C21.6562 16.8125 25.3125 11.3984 25.3125 5C26.2266 5 27 4.29688 27 3.3125V2.1875C27 1.27344 26.2266 0.5 25.3125 0.5ZM19.9688 27.5H6.96094C8.15625 24.2656 10.6172 21.875 13.5 21.875C16.3125 21.875 18.7734 24.2656 19.9688 27.5ZM19.9688 9.5H6.96094C6.39844 8.16406 6.1875 6.61719 6.1875 5H20.8125C20.8125 6.61719 20.5312 8.16406 19.9688 9.5Z" fill="#E6A151"/>
</svg>
