<svg width="32" height="25" viewBox="0 0 32 25" fill="none" xmlns="http://www.w3.org/2000/svg">
<path d="M30.4687 17.1875H29.6875V11.9141C29.6875 11.3281 29.3945 10.6934 28.9551 10.2539L24.1211 5.41992C23.6816 4.98047 23.0469 4.6875 22.4609 4.6875H20.3125V2.34375C20.3125 1.07422 19.2383 0 17.9688 0H2.34375C1.02539 0 0 1.07422 0 2.34375V17.9688C0 19.2871 1.02539 20.3125 2.34375 20.3125H3.125C3.125 22.9004 5.22461 25 7.8125 25C10.4004 25 12.5 22.9004 12.5 20.3125H18.75C18.75 22.9004 20.8496 25 23.4375 25C26.0254 25 28.125 22.9004 28.125 20.3125H30.4687C30.8594 20.3125 31.25 19.9707 31.25 19.5312V17.9688C31.25 17.5781 30.8594 17.1875 30.4687 17.1875ZM7.8125 22.6562C6.49414 22.6562 5.46875 21.6309 5.46875 20.3125C5.46875 19.043 6.49414 17.9688 7.8125 17.9688C9.08203 17.9688 10.1562 19.043 10.1562 20.3125C10.1562 21.6309 9.08203 22.6562 7.8125 22.6562ZM23.4375 22.6562C22.1191 22.6562 21.0938 21.6309 21.0938 20.3125C21.0938 19.043 22.1191 17.9688 23.4375 17.9688C24.707 17.9688 25.7812 19.043 25.7812 20.3125C25.7812 21.6309 24.707 22.6562 23.4375 22.6562ZM27.3437 12.5H20.3125V7.03125H22.4609L27.3437 11.9141V12.5Z" fill="#E6A151"/>
</svg>
