<svg width="20" height="16" viewBox="0 0 20 16" fill="none" xmlns="http://www.w3.org/2000/svg">
<path d="M3.0001 14.5V15.5C3.0001 15.7813 3.21885 16 3.5001 16H10.5001C10.7501 16 11.0001 15.7813 11.0001 15.5V4.8125C11.1251 4.75 11.2501 4.65625 11.3751 4.59375L15.8438 6.0625C16.0938 6.15625 16.375 6.03125 16.4688 5.75L16.7813 4.8125C16.875 4.53125 16.7188 4.25 16.4688 4.1875L12.4375 2.84375C12.4688 2.71875 12.5 2.625 12.5 2.5C12.5 1.125 11.3751 0 10.0001 0C9.06257 0 8.25007 0.53125 7.81257 1.28125L4.1251 0.03125C3.8751 -0.03125 3.59385 0.09375 3.5001 0.34375L3.1876 1.3125C3.09385 1.5625 3.2501 1.84375 3.5001 1.9375L7.62508 3.3125C7.84382 4 8.34382 4.53125 8.96882 4.8125V14H3.5001C3.21885 14 3.0001 14.25 3.0001 14.5ZM0.000120758 9.5C0.000120758 10.9063 1.78136 12 4.0001 12C6.18758 12 8.00007 10.9063 8.00007 9.5H7.96882C7.96882 9.03125 8.06257 9.28125 5.31259 3.84375C4.78134 2.75 3.1876 2.75 2.65635 3.84375C-0.0623789 9.25 0.000120758 9 0.000120758 9.5ZM1.75011 9L4.0001 4.5L6.25008 9H1.75011ZM12 13.5C12 14.9063 13.7813 16 16 16C18.1875 16 20 14.9063 20 13.5H19.9688C19.9688 13.0313 20.0625 13.2813 17.3125 7.84375C16.7813 6.75 15.1875 6.75 14.6563 7.84375C11.9375 13.25 12 13 12 13.5ZM13.75 13L16 8.5L18.25 13H13.75Z" fill="white"/>
</svg>
