<svg width="25" height="20" viewBox="0 0 25 20" fill="none" xmlns="http://www.w3.org/2000/svg">
<path d="M3.75013 18.125V19.375C3.75013 19.7266 4.02356 20 4.37512 20H13.1251C13.4376 20 13.7501 19.7266 13.7501 19.375V6.01562C13.9063 5.9375 14.0626 5.82031 14.2188 5.74219L19.8047 7.57812C20.1172 7.69531 20.4688 7.53906 20.586 7.1875L20.9766 6.01562C21.0938 5.66406 20.8985 5.3125 20.586 5.23438L15.5469 3.55469C15.586 3.39844 15.6251 3.28125 15.6251 3.125C15.6251 1.40625 14.2188 0 12.5001 0C11.3282 0 10.3126 0.664062 9.76572 1.60156L5.15637 0.0390625C4.84387 -0.0390625 4.49231 0.117188 4.37512 0.429688L3.9845 1.64062C3.86732 1.95312 4.06263 2.30469 4.37512 2.42188L9.53134 4.14062C9.80478 5 10.4298 5.66406 11.211 6.01562V17.5H4.37512C4.02356 17.5 3.75013 17.8125 3.75013 18.125ZM0.000150947 11.875C0.000150947 13.6328 2.2267 15 5.00012 15C7.73448 15 10.0001 13.6328 10.0001 11.875H9.96103C9.96103 11.2891 10.0782 11.6016 6.64074 4.80469C5.97668 3.4375 3.9845 3.4375 3.32044 4.80469C-0.0779736 11.5625 0.000150947 11.25 0.000150947 11.875ZM2.18764 11.25L5.00012 5.625L7.8126 11.25H2.18764ZM15.0001 16.875C15.0001 18.6328 17.2266 20 20 20C22.7344 20 25 18.6328 25 16.875H24.9609C24.9609 16.2891 25.0781 16.6016 21.6406 9.80469C20.9766 8.4375 18.9844 8.4375 18.3204 9.80469C14.9219 16.5625 15.0001 16.25 15.0001 16.875ZM17.1875 16.25L20 10.625L22.8125 16.25H17.1875Z" fill="#A2692F"/>
</svg>
