<svg width="19" height="15" viewBox="0 0 19 15" fill="none" xmlns="http://www.w3.org/2000/svg">
<path d="M2.88462 11.5385H0.576923C0.252404 11.5385 0 11.8269 0 12.1154V14.4231C0 14.7476 0.252404 15 0.576923 15H2.88462C3.17308 15 3.46154 14.7476 3.46154 14.4231V12.1154C3.46154 11.8269 3.17308 11.5385 2.88462 11.5385ZM2.88462 0H0.576923C0.252404 0 0 0.288462 0 0.576923V2.88462C0 3.20913 0.252404 3.46154 0.576923 3.46154H2.88462C3.17308 3.46154 3.46154 3.20913 3.46154 2.88462V0.576923C3.46154 0.288462 3.17308 0 2.88462 0ZM2.88462 5.76923H0.576923C0.252404 5.76923 0 6.05769 0 6.34615V8.65385C0 8.97837 0.252404 9.23077 0.576923 9.23077H2.88462C3.17308 9.23077 3.46154 8.97837 3.46154 8.65385V6.34615C3.46154 6.05769 3.17308 5.76923 2.88462 5.76923ZM17.8846 12.1154H6.34615C6.02163 12.1154 5.76923 12.4038 5.76923 12.6923V13.8462C5.76923 14.1707 6.02163 14.4231 6.34615 14.4231H17.8846C18.1731 14.4231 18.4615 14.1707 18.4615 13.8462V12.6923C18.4615 12.4038 18.1731 12.1154 17.8846 12.1154ZM17.8846 0.576923H6.34615C6.02163 0.576923 5.76923 0.865385 5.76923 1.15385V2.30769C5.76923 2.63221 6.02163 2.88462 6.34615 2.88462H17.8846C18.1731 2.88462 18.4615 2.63221 18.4615 2.30769V1.15385C18.4615 0.865385 18.1731 0.576923 17.8846 0.576923ZM17.8846 6.34615H6.34615C6.02163 6.34615 5.76923 6.63462 5.76923 6.92308V8.07692C5.76923 8.40144 6.02163 8.65385 6.34615 8.65385H17.8846C18.1731 8.65385 18.4615 8.40144 18.4615 8.07692V6.92308C18.4615 6.63462 18.1731 6.34615 17.8846 6.34615Z" fill="#CBC2BA"/>
</svg>
