<svg width="18" height="15" viewBox="0 0 18 15" fill="none" xmlns="http://www.w3.org/2000/svg">
<path d="M5.48884 0.803571C5.48884 0.368304 5.12054 0 4.68527 0H1.30357C0.834821 0 0.5 0.368304 0.5 0.803571V3.48214C0.5 3.95089 0.834821 4.28571 1.30357 4.28571H4.68527C5.12054 4.28571 5.48884 3.95089 5.48884 3.48214V0.803571ZM11.5491 8.83929V6.16071C11.5491 5.72545 11.1808 5.35714 10.7455 5.35714H7.36384C6.92857 5.35714 6.56027 5.72545 6.56027 6.16071V8.83929C6.56027 9.30804 6.92857 9.64286 7.36384 9.64286H10.7455C11.1808 9.64286 11.5491 9.30804 11.5491 8.83929ZM12.6205 0.803571V3.48214C12.6205 3.95089 12.9888 4.28571 13.4241 4.28571H16.8393C17.2746 4.28571 17.6429 3.95089 17.6429 3.48214V0.803571C17.6429 0.368304 17.2746 0 16.8393 0H13.4241C12.9888 0 12.6205 0.368304 12.6205 0.803571ZM11.5491 3.48214V0.803571C11.5491 0.368304 11.1808 0 10.7455 0H7.36384C6.92857 0 6.56027 0.368304 6.56027 0.803571V3.48214C6.56027 3.95089 6.92857 4.28571 7.36384 4.28571H10.7455C11.1808 4.28571 11.5491 3.95089 11.5491 3.48214ZM4.68527 5.35714H1.30357C0.834821 5.35714 0.5 5.72545 0.5 6.16071V8.83929C0.5 9.30804 0.834821 9.64286 1.30357 9.64286H4.68527C5.12054 9.64286 5.48884 9.30804 5.48884 8.83929V6.16071C5.48884 5.72545 5.12054 5.35714 4.68527 5.35714ZM0.5 11.5179V14.1964C0.5 14.6652 0.834821 15 1.30357 15H4.68527C5.12054 15 5.48884 14.6652 5.48884 14.1964V11.5179C5.48884 11.0826 5.12054 10.7143 4.68527 10.7143H1.30357C0.834821 10.7143 0.5 11.0826 0.5 11.5179ZM13.4241 9.64286H16.8393C17.2746 9.64286 17.6429 9.30804 17.6429 8.83929V6.16071C17.6429 5.72545 17.2746 5.35714 16.8393 5.35714H13.4241C12.9888 5.35714 12.6205 5.72545 12.6205 6.16071V8.83929C12.6205 9.30804 12.9888 9.64286 13.4241 9.64286ZM13.4241 15H16.8393C17.2746 15 17.6429 14.6652 17.6429 14.1964V11.5179C17.6429 11.0826 17.2746 10.7143 16.8393 10.7143H13.4241C12.9888 10.7143 12.6205 11.0826 12.6205 11.5179V14.1964C12.6205 14.6652 12.9888 15 13.4241 15ZM6.56027 11.5179V14.1964C6.56027 14.6652 6.92857 15 7.36384 15H10.7455C11.1808 15 11.5491 14.6652 11.5491 14.1964V11.5179C11.5491 11.0826 11.1808 10.7143 10.7455 10.7143H7.36384C6.92857 10.7143 6.56027 11.0826 6.56027 11.5179Z" fill="white"/>
</svg>
