<svg width="22" height="22" viewBox="0 0 22 22" fill="none" xmlns="http://www.w3.org/2000/svg">
<path d="M9.60403 5.62891L6.64028 0.6875C6.42552 0.300781 5.95304 0 5.48056 0H0.712789C0.154402 0 -0.189221 0.644531 0.111449 1.11719L4.92217 7.94922C6.1678 6.74609 7.80001 5.92969 9.60403 5.62891ZM21.2872 0H16.5194C16.047 0 15.6174 0.257812 15.3597 0.6875L12.396 5.62891C14.2 5.92969 15.8322 6.74609 17.0778 7.94922L21.8885 1.11719C22.1892 0.644531 21.8456 0 21.2872 0ZM11.0215 6.875C6.8121 6.875 3.46177 10.2695 3.46177 14.4375C3.46177 18.6484 6.8121 22 11.0215 22C15.1879 22 18.5812 18.6484 18.5812 14.4375C18.5812 10.2695 15.1879 6.875 11.0215 6.875ZM14.9731 13.6641L13.3409 15.2539L13.7275 17.4883C13.8134 17.875 13.3839 18.1758 12.9973 18.0039L11.0215 16.9297L9.00269 18.0039C8.61612 18.1758 8.18659 17.875 8.27249 17.4883L8.65907 15.2539L7.02686 13.6641C6.72619 13.3633 6.898 12.8906 7.28458 12.8047L9.56108 12.5039L10.549 10.4414C10.6349 10.2695 10.8067 10.1836 10.9785 10.1836C11.1933 10.1836 11.3651 10.2695 11.451 10.4414L12.4389 12.5039L14.7154 12.8047C15.102 12.8906 15.2738 13.3633 14.9731 13.6641Z" fill="#E6A151"/>
</svg>
