<svg width="16" height="11" viewBox="0 0 16 11" fill="none" xmlns="http://www.w3.org/2000/svg">
<path d="M15.9165 4.95304C14.4139 2.00348 11.4087 0 8.01391 0C4.5913 0 1.58609 2.00348 0.0834783 4.95304C0.0278261 5.06435 0 5.20348 0 5.34261C0 5.50957 0.0278261 5.6487 0.0834783 5.76C1.58609 8.70957 4.5913 10.6852 8.01391 10.6852C11.4087 10.6852 14.4139 8.70957 15.9165 5.76C15.9722 5.6487 16 5.50957 16 5.37043C16 5.20348 15.9722 5.06435 15.9165 4.95304ZM8.01391 9.34957C5.78783 9.34957 4.00696 7.5687 4.00696 5.34261C4.00696 3.14435 5.78783 1.33565 8.01391 1.33565C10.2122 1.33565 12.0209 3.14435 12.0209 5.34261V5.37043C12.0209 7.5687 10.2122 9.37739 8.01391 9.37739V9.34957ZM8.01391 2.6713C7.76348 2.69913 7.51304 2.72696 7.29043 2.78261C7.45739 3.00522 7.54087 3.28348 7.54087 3.58957C7.54087 4.31304 6.95652 4.89739 6.23304 4.89739C5.92696 4.89739 5.6487 4.81391 5.42609 4.64696C5.37043 4.86957 5.34261 5.12 5.34261 5.34261C5.34261 6.81739 6.53913 8.01391 8.01391 8.01391C9.4887 8.01391 10.6852 6.81739 10.6852 5.34261C10.6852 3.86783 9.4887 2.69913 8.01391 2.69913V2.6713Z" fill="white"/>
</svg>
